<svg width="581" height="271" viewBox="0 0 581 271" fill="none" xmlns="http://www.w3.org/2000/svg">
    <rect width="581" height="271" fill="white"/>
    <rect x="71" y="67" width="87" height="94" fill="#EDCF64"/>
    <path d="M105.768 125V121.676L113.535 114.485C114.195 113.846 114.749 113.271 115.197 112.759C115.651 112.248 115.996 111.747 116.23 111.257C116.464 110.76 116.582 110.224 116.582 109.648C116.582 109.009 116.436 108.459 116.145 107.997C115.854 107.528 115.456 107.17 114.952 106.921C114.447 106.665 113.876 106.538 113.237 106.538C112.569 106.538 111.987 106.673 111.489 106.942C110.992 107.212 110.609 107.599 110.339 108.104C110.069 108.608 109.934 109.208 109.934 109.904H105.555C105.555 108.477 105.879 107.237 106.525 106.186C107.171 105.135 108.077 104.322 109.241 103.746C110.406 103.171 111.749 102.884 113.268 102.884C114.831 102.884 116.191 103.161 117.349 103.714C118.513 104.261 119.419 105.021 120.065 105.994C120.712 106.967 121.035 108.082 121.035 109.339C121.035 110.163 120.871 110.977 120.545 111.779C120.225 112.582 119.653 113.473 118.83 114.453C118.006 115.426 116.844 116.594 115.346 117.958L112.161 121.08V121.229H121.322V125H105.768Z" fill="black"/>
    <rect x="192" y="67" width="87" height="94" fill="#EDCF64"/>
    <path d="M235.833 125.298C234.242 125.298 232.825 125.025 231.582 124.478C230.347 123.924 229.37 123.164 228.653 122.198C227.942 121.225 227.577 120.103 227.555 118.832H232.2C232.229 119.364 232.403 119.833 232.722 120.238C233.049 120.636 233.482 120.945 234.022 121.165C234.562 121.385 235.169 121.495 235.844 121.495C236.547 121.495 237.168 121.371 237.708 121.122C238.248 120.874 238.67 120.529 238.976 120.089C239.281 119.648 239.434 119.141 239.434 118.565C239.434 117.983 239.271 117.468 238.944 117.021C238.624 116.566 238.163 116.211 237.559 115.955C236.962 115.7 236.252 115.572 235.428 115.572H233.393V112.184H235.428C236.124 112.184 236.739 112.063 237.271 111.822C237.811 111.58 238.23 111.246 238.528 110.82C238.827 110.387 238.976 109.883 238.976 109.308C238.976 108.761 238.844 108.281 238.582 107.869C238.326 107.45 237.964 107.124 237.495 106.889C237.033 106.655 236.494 106.538 235.876 106.538C235.251 106.538 234.679 106.651 234.161 106.879C233.642 107.099 233.227 107.415 232.914 107.827C232.602 108.239 232.435 108.722 232.413 109.276H227.992C228.013 108.018 228.372 106.911 229.068 105.952C229.764 104.993 230.702 104.244 231.881 103.704C233.067 103.157 234.406 102.884 235.897 102.884C237.403 102.884 238.72 103.157 239.849 103.704C240.979 104.251 241.856 104.989 242.481 105.92C243.113 106.843 243.425 107.88 243.418 109.031C243.425 110.252 243.045 111.271 242.278 112.088C241.518 112.905 240.528 113.423 239.306 113.643V113.814C240.911 114.02 242.133 114.577 242.971 115.487C243.816 116.388 244.235 117.518 244.228 118.874C244.235 120.117 243.876 121.222 243.152 122.188C242.435 123.153 241.444 123.913 240.18 124.467C238.915 125.021 237.467 125.298 235.833 125.298Z" fill="black"/>
    <rect x="313" y="67" width="87" height="94" fill="#F2F1F1"/>
    <path d="M360.261 103.182V125H355.648V107.56H355.52L350.523 110.692V106.602L355.925 103.182H360.261Z" fill="black"/>
    <rect x="434" y="67" width="87" height="94" fill="#F2F1F1"/>
    <path d="M468.438 121.165V117.532L477.547 103.182H480.679V108.21H478.825L473.083 117.298V117.468H486.027V121.165H468.438ZM478.911 125V120.057L478.996 118.448V103.182H483.321V125H478.911Z" fill="black"/>
    <path d="M14.9055 207.068V195.818H17.1428V197.192H17.244C17.3434 196.972 17.4872 196.749 17.6754 196.521C17.8672 196.29 18.1158 196.099 18.4212 195.946C18.7301 195.79 19.1136 195.712 19.5717 195.712C20.1683 195.712 20.7188 195.868 21.223 196.18C21.7273 196.489 22.1303 196.956 22.4322 197.581C22.734 198.203 22.8849 198.982 22.8849 199.92C22.8849 200.832 22.7376 201.603 22.4428 202.232C22.1516 202.857 21.7539 203.331 21.2496 203.654C20.7489 203.973 20.1879 204.133 19.5664 204.133C19.1261 204.133 18.7514 204.06 18.4425 203.915C18.1371 203.769 17.8867 203.586 17.6914 203.366C17.4961 203.142 17.3469 202.917 17.244 202.69H17.1747V207.068H14.9055ZM17.1268 199.909C17.1268 200.396 17.1942 200.82 17.3292 201.182C17.4641 201.544 17.6594 201.827 17.9151 202.029C18.1708 202.228 18.4815 202.327 18.8473 202.327C19.2166 202.327 19.5291 202.226 19.7848 202.024C20.0405 201.818 20.234 201.534 20.3654 201.172C20.5004 200.806 20.5678 200.385 20.5678 199.909C20.5678 199.437 20.5021 199.021 20.3707 198.663C20.2393 198.304 20.0458 198.023 19.7901 197.821C19.5344 197.619 19.2202 197.517 18.8473 197.517C18.478 197.517 18.1655 197.615 17.9098 197.81C17.6577 198.006 17.4641 198.283 17.3292 198.641C17.1942 199 17.1268 199.423 17.1268 199.909ZM28.0945 204.16C27.267 204.16 26.5515 203.984 25.9478 203.632C25.3477 203.277 24.8842 202.784 24.5575 202.152C24.2308 201.516 24.0675 200.779 24.0675 199.941C24.0675 199.096 24.2308 198.357 24.5575 197.725C24.8842 197.089 25.3477 196.596 25.9478 196.244C26.5515 195.889 27.267 195.712 28.0945 195.712C28.9219 195.712 29.6357 195.889 30.2358 196.244C30.8395 196.596 31.3047 197.089 31.6314 197.725C31.9581 198.357 32.1214 199.096 32.1214 199.941C32.1214 200.779 31.9581 201.516 31.6314 202.152C31.3047 202.784 30.8395 203.277 30.2358 203.632C29.6357 203.984 28.9219 204.16 28.0945 204.16ZM28.1051 202.402C28.4815 202.402 28.7958 202.295 29.0479 202.082C29.3001 201.866 29.4901 201.571 29.6179 201.198C29.7493 200.825 29.815 200.401 29.815 199.925C29.815 199.449 29.7493 199.025 29.6179 198.652C29.4901 198.279 29.3001 197.984 29.0479 197.768C28.7958 197.551 28.4815 197.443 28.1051 197.443C27.7251 197.443 27.4055 197.551 27.1463 197.768C26.8906 197.984 26.6971 198.279 26.5657 198.652C26.4379 199.025 26.3739 199.449 26.3739 199.925C26.3739 200.401 26.4379 200.825 26.5657 201.198C26.6971 201.571 26.8906 201.866 27.1463 202.082C27.4055 202.295 27.7251 202.402 28.1051 202.402ZM40.4045 198.151L38.3271 198.279C38.2915 198.102 38.2152 197.942 38.098 197.8C37.9808 197.654 37.8263 197.539 37.6346 197.453C37.4464 197.365 37.2209 197.32 36.9581 197.32C36.6065 197.32 36.31 197.395 36.0685 197.544C35.8271 197.69 35.7063 197.885 35.7063 198.13C35.7063 198.325 35.7844 198.49 35.9407 198.625C36.0969 198.76 36.3651 198.869 36.745 198.95L38.2259 199.249C39.0213 199.412 39.6143 199.675 40.005 200.037C40.3956 200.399 40.5909 200.875 40.5909 201.464C40.5909 202.001 40.4329 202.471 40.1168 202.876C39.8043 203.281 39.3746 203.597 38.8278 203.824C38.2844 204.048 37.6577 204.16 36.9474 204.16C35.8643 204.16 35.0014 203.934 34.3587 203.483C33.7195 203.029 33.3448 202.411 33.2347 201.63L35.4666 201.512C35.5341 201.843 35.6974 202.095 35.9567 202.269C36.2159 202.439 36.5479 202.525 36.9528 202.525C37.3505 202.525 37.6701 202.448 37.9116 202.295C38.1566 202.139 38.2809 201.939 38.2844 201.694C38.2809 201.488 38.1939 201.319 38.0234 201.188C37.853 201.053 37.5902 200.95 37.2351 200.879L35.8182 200.596C35.0192 200.436 34.4244 200.159 34.0337 199.765C33.6467 199.371 33.4531 198.869 33.4531 198.258C33.4531 197.732 33.5952 197.279 33.8793 196.9C34.1669 196.52 34.57 196.227 35.0884 196.021C35.6104 195.815 36.2212 195.712 36.9208 195.712C37.9542 195.712 38.7674 195.93 39.3604 196.367C39.957 196.804 40.305 197.398 40.4045 198.151ZM42.0198 204V195.818H44.289V204H42.0198ZM43.1597 194.763C42.8224 194.763 42.5329 194.652 42.2915 194.428C42.0535 194.201 41.9346 193.929 41.9346 193.613C41.9346 193.3 42.0535 193.032 42.2915 192.809C42.5329 192.581 42.8224 192.468 43.1597 192.468C43.4971 192.468 43.7847 192.581 44.0226 192.809C44.2641 193.032 44.3849 193.3 44.3849 193.613C44.3849 193.929 44.2641 194.201 44.0226 194.428C43.7847 194.652 43.4971 194.763 43.1597 194.763ZM52.9142 198.151L50.8368 198.279C50.8013 198.102 50.725 197.942 50.6078 197.8C50.4906 197.654 50.3361 197.539 50.1444 197.453C49.9561 197.365 49.7306 197.32 49.4679 197.32C49.1163 197.32 48.8198 197.395 48.5783 197.544C48.3368 197.69 48.2161 197.885 48.2161 198.13C48.2161 198.325 48.2942 198.49 48.4505 198.625C48.6067 198.76 48.8748 198.869 49.2548 198.95L50.7356 199.249C51.5311 199.412 52.1241 199.675 52.5147 200.037C52.9054 200.399 53.1007 200.875 53.1007 201.464C53.1007 202.001 52.9426 202.471 52.6266 202.876C52.3141 203.281 51.8844 203.597 51.3375 203.824C50.7942 204.048 50.1674 204.16 49.4572 204.16C48.3741 204.16 47.5112 203.934 46.8684 203.483C46.2292 203.029 45.8546 202.411 45.7445 201.63L47.9764 201.512C48.0439 201.843 48.2072 202.095 48.4664 202.269C48.7257 202.439 49.0577 202.525 49.4625 202.525C49.8603 202.525 50.1799 202.448 50.4213 202.295C50.6664 202.139 50.7907 201.939 50.7942 201.694C50.7907 201.488 50.7037 201.319 50.5332 201.188C50.3627 201.053 50.1 200.95 49.7449 200.879L48.3279 200.596C47.5289 200.436 46.9341 200.159 46.5435 199.765C46.1564 199.371 45.9629 198.869 45.9629 198.258C45.9629 197.732 46.1049 197.279 46.389 196.9C46.6767 196.52 47.0797 196.227 47.5982 196.021C48.1202 195.815 48.731 195.712 49.4306 195.712C50.464 195.712 51.2772 195.93 51.8702 196.367C52.4668 196.804 52.8148 197.398 52.9142 198.151ZM54.5296 204V195.818H56.7987V204H54.5296ZM55.6695 194.763C55.3321 194.763 55.0427 194.652 54.8012 194.428C54.5633 194.201 54.4443 193.929 54.4443 193.613C54.4443 193.3 54.5633 193.032 54.8012 192.809C55.0427 192.581 55.3321 192.468 55.6695 192.468C56.0068 192.468 56.2945 192.581 56.5324 192.809C56.7739 193.032 56.8946 193.3 56.8946 193.613C56.8946 193.929 56.7739 194.201 56.5324 194.428C56.2945 194.652 56.0068 194.763 55.6695 194.763Z" fill="black"/>
    <path d="M115.63 193.091V204H113.324V195.28H113.26L110.762 196.846V194.801L113.462 193.091H115.63Z" fill="black"/>
    <path d="M475.719 202.082V200.266L480.273 193.091H481.839V195.605H480.913L478.042 200.149V200.234H484.513V202.082H475.719ZM480.955 204V201.528L480.998 200.724V193.091H483.161V204H480.955Z" fill="black"/>
    <path d="M357.917 204.149C357.121 204.149 356.413 204.012 355.791 203.739C355.173 203.462 354.685 203.082 354.326 202.599C353.971 202.113 353.788 201.551 353.778 200.916H356.1C356.114 201.182 356.201 201.417 356.361 201.619C356.525 201.818 356.741 201.972 357.011 202.082C357.281 202.192 357.585 202.248 357.922 202.248C358.273 202.248 358.584 202.185 358.854 202.061C359.124 201.937 359.335 201.765 359.488 201.544C359.641 201.324 359.717 201.07 359.717 200.783C359.717 200.491 359.635 200.234 359.472 200.01C359.312 199.783 359.081 199.605 358.779 199.478C358.481 199.35 358.126 199.286 357.714 199.286H356.697V197.592H357.714C358.062 197.592 358.369 197.532 358.636 197.411C358.906 197.29 359.115 197.123 359.264 196.91C359.413 196.694 359.488 196.441 359.488 196.154C359.488 195.88 359.422 195.641 359.291 195.435C359.163 195.225 358.982 195.062 358.748 194.945C358.517 194.827 358.247 194.769 357.938 194.769C357.625 194.769 357.339 194.826 357.08 194.939C356.821 195.049 356.613 195.207 356.457 195.413C356.301 195.619 356.217 195.861 356.207 196.138H353.996C354.007 195.509 354.186 194.955 354.534 194.476C354.882 193.996 355.351 193.622 355.94 193.352C356.533 193.078 357.203 192.942 357.949 192.942C358.701 192.942 359.36 193.078 359.925 193.352C360.489 193.625 360.928 193.995 361.24 194.46C361.556 194.922 361.713 195.44 361.709 196.015C361.713 196.626 361.523 197.136 361.139 197.544C360.759 197.952 360.264 198.212 359.653 198.322V198.407C360.456 198.51 361.066 198.789 361.485 199.243C361.908 199.694 362.118 200.259 362.114 200.937C362.118 201.559 361.938 202.111 361.576 202.594C361.217 203.077 360.722 203.457 360.09 203.734C359.458 204.011 358.733 204.149 357.917 204.149Z" fill="black"/>
    <path d="M231.884 204V202.338L235.767 198.743C236.098 198.423 236.375 198.135 236.598 197.88C236.826 197.624 236.998 197.374 237.115 197.129C237.232 196.88 237.291 196.612 237.291 196.324C237.291 196.005 237.218 195.729 237.072 195.499C236.927 195.264 236.728 195.085 236.476 194.961C236.224 194.833 235.938 194.769 235.618 194.769C235.284 194.769 234.993 194.836 234.745 194.971C234.496 195.106 234.304 195.3 234.169 195.552C234.034 195.804 233.967 196.104 233.967 196.452H231.778C231.778 195.738 231.939 195.119 232.262 194.593C232.586 194.067 233.038 193.661 233.621 193.373C234.203 193.086 234.874 192.942 235.634 192.942C236.415 192.942 237.096 193.08 237.674 193.357C238.257 193.631 238.71 194.011 239.033 194.497C239.356 194.984 239.517 195.541 239.517 196.17C239.517 196.582 239.436 196.988 239.272 197.39C239.113 197.791 238.827 198.237 238.415 198.727C238.003 199.213 237.422 199.797 236.673 200.479L235.08 202.04V202.114H239.661V204H231.884Z" fill="black"/>
    <path d="M216.707 190.707C217.098 190.317 217.098 189.683 216.707 189.293L210.343 182.929C209.953 182.538 209.319 182.538 208.929 182.929C208.538 183.319 208.538 183.953 208.929 184.343L214.586 190L208.929 195.657C208.538 196.047 208.538 196.681 208.929 197.071C209.319 197.462 209.953 197.462 210.343 197.071L216.707 190.707ZM135 191H216V189H135V191Z" fill="black"/>
    <path d="M133.293 208.293C132.902 208.683 132.902 209.317 133.293 209.707L139.657 216.071C140.047 216.462 140.681 216.462 141.071 216.071C141.462 215.681 141.462 215.047 141.071 214.657L135.414 209L141.071 203.343C141.462 202.953 141.462 202.319 141.071 201.929C140.681 201.538 140.047 201.538 139.657 201.929L133.293 208.293ZM216 208H134V210H216V208Z" fill="black"/>
    <path d="M149.564 245.163C148.835 245.163 148.183 244.976 147.608 244.602C147.032 244.227 146.578 243.684 146.244 242.972C145.91 242.259 145.743 241.394 145.743 240.376C145.743 239.345 145.912 238.476 146.25 237.768C146.592 237.055 147.053 236.518 147.632 236.156C148.212 235.79 148.858 235.607 149.57 235.607C150.113 235.607 150.56 235.699 150.91 235.884C151.26 236.065 151.538 236.285 151.743 236.542C151.949 236.796 152.107 237.035 152.22 237.261H152.311V232.636H154.502V245H152.353V243.539H152.22C152.107 243.764 151.944 244.004 151.731 244.257C151.518 244.507 151.236 244.72 150.886 244.897C150.536 245.074 150.095 245.163 149.564 245.163ZM150.174 243.37C150.636 243.37 151.031 243.245 151.357 242.996C151.683 242.742 151.93 242.39 152.099 241.939C152.268 241.489 152.353 240.963 152.353 240.364C152.353 239.764 152.268 239.243 152.099 238.8C151.934 238.357 151.689 238.013 151.363 237.768C151.041 237.522 150.645 237.4 150.174 237.4C149.687 237.4 149.28 237.526 148.954 237.78C148.628 238.033 148.383 238.384 148.218 238.83C148.053 239.277 147.97 239.788 147.97 240.364C147.97 240.943 148.053 241.46 148.218 241.915C148.387 242.366 148.634 242.722 148.96 242.984C149.29 243.241 149.695 243.37 150.174 243.37ZM156.831 245V235.727H159.016V245H156.831ZM157.93 234.411C157.583 234.411 157.286 234.297 157.036 234.067C156.787 233.834 156.662 233.554 156.662 233.228C156.662 232.898 156.787 232.618 157.036 232.389C157.286 232.155 157.583 232.039 157.93 232.039C158.28 232.039 158.578 232.155 158.823 232.389C159.073 232.618 159.197 232.898 159.197 233.228C159.197 233.554 159.073 233.834 158.823 234.067C158.578 234.297 158.28 234.411 157.93 234.411ZM165.894 235.727V237.418H160.563V235.727H165.894ZM161.879 233.506H164.065V242.211C164.065 242.505 164.109 242.73 164.197 242.887C164.29 243.04 164.411 243.145 164.56 243.201C164.709 243.257 164.874 243.286 165.055 243.286C165.192 243.286 165.316 243.275 165.429 243.255C165.546 243.235 165.634 243.217 165.695 243.201L166.063 244.909C165.946 244.95 165.779 244.994 165.562 245.042C165.348 245.091 165.087 245.119 164.777 245.127C164.23 245.143 163.737 245.06 163.298 244.879C162.859 244.694 162.511 244.408 162.254 244.022C162 243.636 161.875 243.153 161.879 242.573V233.506ZM173.632 241.1V235.727H175.817V245H173.698V243.352H173.601C173.392 243.871 173.048 244.296 172.569 244.626C172.094 244.956 171.509 245.121 170.812 245.121C170.205 245.121 169.667 244.986 169.201 244.716C168.738 244.443 168.376 244.046 168.114 243.527C167.852 243.004 167.722 242.372 167.722 241.631V235.727H169.907V241.293C169.907 241.881 170.068 242.348 170.39 242.694C170.712 243.04 171.134 243.213 171.658 243.213C171.98 243.213 172.291 243.135 172.593 242.978C172.895 242.821 173.143 242.587 173.336 242.277C173.533 241.963 173.632 241.571 173.632 241.1ZM180.056 242.09L180.05 239.452H180.401L183.733 235.727H186.287L182.188 240.291H181.735L180.056 242.09ZM178.064 245V232.636H180.25V245H178.064ZM183.884 245L180.865 240.78L182.338 239.241L186.498 245H183.884ZM190.411 245.187C189.824 245.187 189.294 245.083 188.824 244.873C188.357 244.66 187.986 244.346 187.713 243.931C187.443 243.517 187.308 243.006 187.308 242.398C187.308 241.875 187.405 241.442 187.598 241.1C187.791 240.758 188.055 240.484 188.389 240.279C188.723 240.074 189.099 239.919 189.518 239.814C189.94 239.706 190.377 239.627 190.828 239.579C191.371 239.522 191.812 239.472 192.15 239.428C192.488 239.38 192.734 239.307 192.886 239.211C193.043 239.11 193.122 238.955 193.122 238.746V238.71C193.122 238.255 192.987 237.903 192.717 237.653C192.448 237.404 192.059 237.279 191.552 237.279C191.017 237.279 190.592 237.395 190.278 237.629C189.969 237.862 189.759 238.138 189.651 238.456L187.61 238.166C187.771 237.603 188.037 237.132 188.407 236.754C188.777 236.371 189.23 236.085 189.765 235.896C190.301 235.703 190.892 235.607 191.54 235.607C191.987 235.607 192.432 235.659 192.874 235.763C193.317 235.868 193.722 236.041 194.088 236.283C194.454 236.52 194.748 236.844 194.969 237.255C195.195 237.665 195.307 238.178 195.307 238.794V245H193.206V243.726H193.134C193.001 243.984 192.814 244.225 192.573 244.451C192.335 244.672 192.035 244.851 191.673 244.988C191.315 245.121 190.894 245.187 190.411 245.187ZM190.979 243.581C191.417 243.581 191.798 243.495 192.12 243.322C192.442 243.145 192.689 242.911 192.862 242.621C193.039 242.332 193.128 242.016 193.128 241.674V240.581C193.06 240.637 192.943 240.69 192.778 240.738C192.617 240.786 192.436 240.828 192.234 240.865C192.033 240.901 191.834 240.933 191.637 240.961C191.44 240.989 191.269 241.014 191.124 241.034C190.798 241.078 190.506 241.15 190.248 241.251C189.991 241.352 189.787 241.493 189.639 241.674C189.49 241.851 189.415 242.08 189.415 242.362C189.415 242.764 189.562 243.068 189.856 243.273C190.15 243.479 190.524 243.581 190.979 243.581ZM197.505 245V235.727H199.624V237.273H199.72C199.889 236.737 200.179 236.325 200.59 236.035C201.004 235.741 201.477 235.594 202.008 235.594C202.129 235.594 202.264 235.6 202.413 235.613C202.566 235.621 202.692 235.635 202.793 235.655V237.665C202.7 237.633 202.554 237.605 202.352 237.581C202.155 237.552 201.964 237.538 201.779 237.538C201.38 237.538 201.022 237.625 200.704 237.798C200.39 237.967 200.143 238.202 199.962 238.504C199.781 238.806 199.69 239.154 199.69 239.549V245H197.505Z" fill="black"/>
    </svg>
    